<?xml version="1.0" encoding="utf-8"?>
<!-- Generator: Adobe Illustrator 27.4.1, SVG Export Plug-In . SVG Version: 6.00 Build 0)  -->
<svg version="1.1" id="Warstwa_1" xmlns="http://www.w3.org/2000/svg" xmlns:xlink="http://www.w3.org/1999/xlink" x="0px" y="0px"
	 width="595.3px" height="595.3px" viewBox="0 0 595.3 595.3" style="enable-background:new 0 0 595.3 595.3;" xml:space="preserve"
	>
<style type="text/css">
	.st0{display:none;}
	.st1{display:inline;fill:none;stroke:#000000;stroke-width:0.5;}
	.st2{fill:none;}
	.st3{fill:none;stroke:#000000;stroke-width:15;}
</style>
<g class="st0">
	<rect y="0" class="st1" width="595.3" height="595.3"/>
	<line class="st1" x1="0" y1="541.2" x2="595.3" y2="541.2"/>
	<line class="st1" x1="0" y1="487" x2="595.3" y2="487"/>
	<line class="st1" x1="0" y1="432.9" x2="595.3" y2="432.9"/>
	<line class="st1" x1="0" y1="378.8" x2="595.3" y2="378.8"/>
	<line class="st1" x1="0" y1="324.7" x2="595.3" y2="324.7"/>
	<line class="st1" x1="0" y1="270.6" x2="595.3" y2="270.6"/>
	<line class="st1" x1="0" y1="216.5" x2="595.3" y2="216.5"/>
	<line class="st1" x1="0" y1="162.3" x2="595.3" y2="162.3"/>
	<line class="st1" x1="0" y1="108.2" x2="595.3" y2="108.2"/>
	<line class="st1" x1="0" y1="54.1" x2="595.3" y2="54.1"/>
	<line class="st1" x1="541.2" y1="0" x2="541.2" y2="595.3"/>
	<line class="st1" x1="487" y1="0" x2="487" y2="595.3"/>
	<line class="st1" x1="432.9" y1="0" x2="432.9" y2="595.3"/>
	<line class="st1" x1="378.8" y1="0" x2="378.8" y2="595.3"/>
	<line class="st1" x1="324.7" y1="0" x2="324.7" y2="595.3"/>
	<line class="st1" x1="270.6" y1="0" x2="270.6" y2="595.3"/>
	<line class="st1" x1="216.5" y1="0" x2="216.5" y2="595.3"/>
	<line class="st1" x1="162.3" y1="0" x2="162.3" y2="595.3"/>
	<line class="st1" x1="108.2" y1="0" x2="108.2" y2="595.3"/>
	<line class="st1" x1="54.1" y1="0" x2="54.1" y2="595.3"/>
</g>
<g>
	
		<ellipse transform="matrix(0.9732 -0.2298 0.2298 0.9732 -34.865 73.3613)" class="st2" cx="297.6" cy="186.4" rx="40.2" ry="40.2"/>
	<path class="st2" d="M197.4,244.1L224,292l73.6,133l73.7-133l26.4-47.7l7.3-13.2c7.3-15.4,11.4-32.6,11.4-50.7
		c0-65.5-53.3-118.8-118.8-118.8s-118.8,53.3-118.8,118.8c0,18.2,4.1,35.5,11.5,50.9L197.4,244.1z M297.6,131.2
		c30.4,0,55.2,24.8,55.2,55.2c0,30.4-24.8,55.2-55.2,55.2c-30.4,0-55.2-24.8-55.2-55.2C242.4,156,267.2,131.2,297.6,131.2z"/>
	<path d="M472.1,394.4c-26-8.3-56.7-14.5-90.2-18.4l-7.9,14.2c34.9,3.7,66.8,10,93.5,18.5c41.4,13.2,66.1,31.1,66.1,47.8
		c0,16.7-24.7,34.6-66.1,47.8c-45.1,14.4-105.1,22.3-169.1,22.4l-0.8,1.4l-0.8-1.4c-64-0.1-124-8-169.1-22.4
		c-41.4-13.2-66.1-31.1-66.1-47.8c0-16.7,24.7-34.6,66.1-47.8c26.7-8.5,58.6-14.8,93.5-18.5l-7.9-14.2
		c-33.5,3.9-64.2,10.1-90.2,18.4c-50.1,16-76.5,37.4-76.5,62.1c0,24.6,26.5,46.1,76.5,62.1c46.7,14.9,108.7,23.1,174.5,23.1
		s127.8-8.2,174.5-23.1c50.1-16,76.5-37.4,76.5-62.1C548.7,431.9,522.2,410.4,472.1,394.4z"/>
	<path d="M176.9,238.2c2.2,4.7,4.7,9.2,7.5,13.5l113.2,204.2l113.1-204.1c2.8-4.4,5.4-9,7.7-13.8l0.1-0.3
		c8.3-17.4,12.9-36.8,12.9-57.3c0-73.8-60-133.8-133.8-133.8s-133.8,60-133.8,133.8c0,20.6,4.7,40.1,13,57.5L176.9,238.2z
		 M297.6,61.6c65.5,0,118.8,53.3,118.8,118.8c0,18.1-4.1,35.3-11.4,50.7l-7.3,13.2L371.3,292l-73.7,133L224,292l-26.6-47.9
		l-7.1-12.8c-7.4-15.4-11.5-32.7-11.5-50.9C178.8,114.9,232.1,61.6,297.6,61.6z"/>
	<path d="M297.6,241.6c30.4,0,55.2-24.8,55.2-55.2c0-30.4-24.8-55.2-55.2-55.2c-30.4,0-55.2,24.8-55.2,55.2
		C242.4,216.8,267.2,241.6,297.6,241.6z M297.6,146.2c22.2,0,40.2,18,40.2,40.2c0,22.2-18,40.2-40.2,40.2s-40.2-18-40.2-40.2
		C257.4,164.2,275.4,146.2,297.6,146.2z"/>
</g>
</svg>
