<?xml version="1.0" encoding="utf-8"?>
<!-- Generator: Adobe Illustrator 27.4.1, SVG Export Plug-In . SVG Version: 6.00 Build 0)  -->
<svg version="1.1" id="Warstwa_1" xmlns="http://www.w3.org/2000/svg" xmlns:xlink="http://www.w3.org/1999/xlink" x="0px" y="0px"
	 width="595.5px" height="595.5px" viewBox="0 0 595.5 595.5" style="enable-background:new 0 0 595.5 595.5;" xml:space="preserve"
	>
<style type="text/css">
	.st0{display:none;}
	.st1{display:inline;fill:none;stroke:#000000;stroke-width:0.5;}
	.st2{fill:none;}
	.st3{fill:none;stroke:#000000;stroke-width:15;}
</style>
<g class="st0">
	<rect class="st1" width="595.3" height="595.3"/>
	<line class="st1" x1="0" y1="541.2" x2="595.3" y2="541.2"/>
	<line class="st1" x1="0" y1="487" x2="595.3" y2="487"/>
	<line class="st1" x1="0" y1="432.9" x2="595.3" y2="432.9"/>
	<line class="st1" x1="0" y1="378.8" x2="595.3" y2="378.8"/>
	<line class="st1" x1="0" y1="324.7" x2="595.3" y2="324.7"/>
	<line class="st1" x1="0" y1="270.6" x2="595.3" y2="270.6"/>
	<line class="st1" x1="0" y1="216.5" x2="595.3" y2="216.5"/>
	<line class="st1" x1="0" y1="162.3" x2="595.3" y2="162.3"/>
	<line class="st1" x1="0" y1="108.2" x2="595.3" y2="108.2"/>
	<line class="st1" x1="0" y1="54.1" x2="595.3" y2="54.1"/>
	<line class="st1" x1="541.2" y1="0" x2="541.2" y2="595.3"/>
	<line class="st1" x1="487.1" y1="0" x2="487.1" y2="595.3"/>
	<line class="st1" x1="433" y1="0" x2="433" y2="595.3"/>
	<line class="st1" x1="378.9" y1="0" x2="378.9" y2="595.3"/>
	<line class="st1" x1="324.7" y1="0" x2="324.7" y2="595.3"/>
	<line class="st1" x1="270.6" y1="0" x2="270.6" y2="595.3"/>
	<line class="st1" x1="216.5" y1="0" x2="216.5" y2="595.3"/>
	<line class="st1" x1="162.4" y1="0" x2="162.4" y2="595.3"/>
	<line class="st1" x1="108.3" y1="0" x2="108.3" y2="595.3"/>
	<line class="st1" x1="54.2" y1="0" x2="54.2" y2="595.3"/>
</g>
<polygon points="386.4,494.8 274.8,494.8 274.8,479.8 371.4,479.8 371.4,325 386.4,325 "/>
<g>
	<polygon class="st2" points="263.1,531.5 263.1,113.6 115.8,64.3 115.8,481.6 	"/>
	<path d="M100.8,492.4l177.3,60V102.9L154.3,61.3h-53.5V492.4z M263.1,113.6v417.8l-147.3-49.9V64.3L263.1,113.6z"/>
	<polygon points="109.5,46.3 154.3,61.3 371.4,61.3 371.4,216.4 386.4,216.4 386.4,46.3 	"/>
	<polygon points="100.8,46.3 100.8,61.3 154.3,61.3 109.5,46.3 	"/>
</g>
<polygon points="492.4,330 481.9,319.3 530.8,270.7 481.8,221.8 492.5,211.1 552,270.7 "/>
<rect x="324.7" y="263.1" width="211.5" height="15"/>
</svg>
