<?xml version="1.0" encoding="utf-8"?>
<!-- Generator: Adobe Illustrator 27.4.1, SVG Export Plug-In . SVG Version: 6.00 Build 0)  -->
<svg version="1.1" id="Warstwa_1" xmlns="http://www.w3.org/2000/svg" xmlns:xlink="http://www.w3.org/1999/xlink" x="0px" y="0px"
	 width="595.5px" height="595.5px" viewBox="0 0 595.5 595.5" style="enable-background:new 0 0 595.5 595.5;" xml:space="preserve"
	>
<style type="text/css">
	.st0{display:none;}
	.st1{display:inline;fill:none;stroke:#000000;stroke-width:0.5;}
	.st2{fill:none;}
	.st3{fill:none;stroke:#000000;stroke-width:15;}
</style>
<g class="st0">
	<rect class="st1" width="595.3" height="595.3"/>
	<line class="st1" x1="0" y1="541.2" x2="595.3" y2="541.2"/>
	<line class="st1" x1="0" y1="487" x2="595.3" y2="487"/>
	<line class="st1" x1="0" y1="432.9" x2="595.3" y2="432.9"/>
	<line class="st1" x1="0" y1="378.8" x2="595.3" y2="378.8"/>
	<line class="st1" x1="0" y1="324.7" x2="595.3" y2="324.7"/>
	<line class="st1" x1="0" y1="270.6" x2="595.3" y2="270.6"/>
	<line class="st1" x1="0" y1="216.5" x2="595.3" y2="216.5"/>
	<line class="st1" x1="0" y1="162.3" x2="595.3" y2="162.3"/>
	<line class="st1" x1="0" y1="108.2" x2="595.3" y2="108.2"/>
	<line class="st1" x1="0" y1="54.1" x2="595.3" y2="54.1"/>
	<line class="st1" x1="541.2" y1="0" x2="541.2" y2="595.3"/>
	<line class="st1" x1="487.1" y1="0" x2="487.1" y2="595.3"/>
	<line class="st1" x1="433" y1="0" x2="433" y2="595.3"/>
	<line class="st1" x1="378.9" y1="0" x2="378.9" y2="595.3"/>
	<line class="st1" x1="324.7" y1="0" x2="324.7" y2="595.3"/>
	<line class="st1" x1="270.6" y1="0" x2="270.6" y2="595.3"/>
	<line class="st1" x1="216.5" y1="0" x2="216.5" y2="595.3"/>
	<line class="st1" x1="162.4" y1="0" x2="162.4" y2="595.3"/>
	<line class="st1" x1="108.3" y1="0" x2="108.3" y2="595.3"/>
	<line class="st1" x1="54.2" y1="0" x2="54.2" y2="595.3"/>
</g>
<g>
	<path class="st2" d="M337.4,322.8L337.4,322.8c-12.6-3.6-25.9-5.6-39.7-5.6h0C311.4,317.2,324.8,319.2,337.4,322.8z"/>
	<path class="st2" d="M419,500.2c0.6-0.4,1.2-0.8,1.8-1.1C420.2,499.4,419.6,499.8,419,500.2c4.2-12.6,6.5-26.2,6.5-40.2
		c0-70.5-57.3-127.8-127.8-127.8S169.9,389.5,169.9,460c0,14,2.3,27.5,6.5,40.2c0,0,0,0,0,0c36.3,21.8,77.9,33.5,121.3,33.4
		C341.1,533.6,382.7,522,419,500.2z"/>
	
		<ellipse transform="matrix(0.7071 -0.7071 0.7071 0.7071 -84.9862 281.8252)" class="st2" cx="297.7" cy="243.5" rx="73.7" ry="73.7"/>
	<path class="st2" d="M186.4,522.8c-4-7.2-7.4-14.7-10-22.6C179,508.1,182.4,515.7,186.4,522.8z"/>
	<path class="st2" d="M297.7,317.2c-13.8,0-27.1,1.9-39.7,5.6C270.6,319.2,283.9,317.2,297.7,317.2z"/>
	<path class="st2" d="M464.6,130.7C420,86.2,360.7,61.6,297.7,61.6c-63.1,0-122.4,24.5-166.9,69.1c-44.5,44.6-69.1,103.9-69.1,166.9
		c0,63.1,24.5,122.3,69.1,166.9c8.4,8.4,17.4,16.1,26.8,23.1c-1.8-9-2.7-18.1-2.7-27.6c0-65,43.6-120,103.1-137.2l0,0h0
		c-29-14.6-49-44.7-49-79.3c0-48.9,39.8-88.7,88.7-88.7s88.7,39.8,88.7,88.7c0,34.7-20,64.7-49,79.3
		C396.9,340,440.5,395,440.5,459.9c0,9.5-0.9,18.7-2.7,27.7c-2.1,1.6-4.3,3.1-6.5,4.6c2.2-1.5,4.4-3,6.5-4.6l0,0
		c9.4-7,18.4-14.7,26.8-23.1c44.5-44.6,69.1-103.9,69.1-166.9C533.7,234.5,509.2,175.3,464.6,130.7z"/>
	<path class="st2" d="M337.4,322.8c-12,6-25.4,9.4-39.7,9.4l0,0C312,332.2,325.5,328.8,337.4,322.8z"/>
	<path d="M548.7,297.6c0-67.1-26.1-130.1-73.5-177.5c-47.4-47.4-110.4-73.5-177.5-73.5s-130.1,26.1-177.5,73.5
		c-47.4,47.4-73.5,110.4-73.5,177.5c0,67,26.1,130.1,73.5,177.5c13.4,13.4,28.1,25.2,43.8,35.1c7.3,4.6,14.7,8.8,22.4,12.6
		c-4-7.1-7.4-14.7-10-22.6c0,0,0,0,0,0c-4.2-12.7-6.5-26.2-6.5-40.2c0-70.5,57.3-127.8,127.8-127.8S425.5,389.5,425.5,460
		c0,14-2.3,27.6-6.5,40.2c0.6-0.4,1.2-0.8,1.8-1.1c-0.6,0.4-1.2,0.8-1.8,1.1c-36.3,21.8-77.9,33.4-121.3,33.4
		c-43.4,0.1-85-11.6-121.3-33.4c2.6,7.9,6,15.4,10,22.6c34.2,16.9,72,25.9,111.3,25.9c39.2,0,77.1-9,111.3-25.9
		c7.7-3.8,15.1-8,22.4-12.6v0c15.7-9.9,30.4-21.6,43.8-35.1C522.6,427.7,548.7,364.7,548.7,297.6z M337.4,322.8L337.4,322.8
		c-12.6-3.6-26-5.6-39.7-5.6h0c-40.6,0-73.7-33.1-73.7-73.7c0-40.6,33-73.7,73.7-73.7s73.7,33.1,73.7,73.7c0,40.6-33,73.7-73.7,73.7
		C311.5,317.2,324.8,319.2,337.4,322.8z M258,322.8c12.6-3.7,25.9-5.6,39.7-5.6C283.9,317.2,270.6,319.2,258,322.8z M337.4,322.8
		c-11.9,6-25.4,9.4-39.7,9.4l0,0C312,332.2,325.4,328.8,337.4,322.8z M437.8,487.6L437.8,487.6c-2.1,1.6-4.3,3.1-6.5,4.6
		C433.5,490.7,435.7,489.2,437.8,487.6c1.8-9,2.7-18.2,2.7-27.7c0-64.9-43.6-119.9-103.1-137.1c29-14.6,49-44.6,49-79.3
		c0-48.9-39.8-88.7-88.7-88.7S209,194.6,209,243.5c0,34.6,20,64.7,49,79.3h0l0,0C198.5,340,154.9,395,154.9,460
		c0,9.5,0.9,18.6,2.7,27.6c-9.4-7-18.4-14.7-26.8-23.1c-44.6-44.6-69.1-103.8-69.1-166.9c0-63,24.6-122.3,69.1-166.9
		c44.5-44.6,103.8-69.1,166.9-69.1c63,0,122.3,24.6,166.9,69.1c44.6,44.6,69.1,103.8,69.1,166.9c0,63-24.6,122.3-69.1,166.9
		C456.2,472.9,447.2,480.6,437.8,487.6z"/>
</g>
</svg>
