<svg width="20" height="21" viewBox="0 0 20 21" fill="none" xmlns="http://www.w3.org/2000/svg">
<path fill-rule="evenodd" clip-rule="evenodd" d="M13.2839 12.9253C14.1511 12.0798 14.6346 10.9373 14.6346 9.75V9H16.1346V9.75C16.1346 11.3475 15.4836 12.8756 14.3311 13.9993C13.1792 15.1224 11.621 15.75 10 15.75C8.37904 15.75 6.82076 15.1224 5.66892 13.9993C4.51644 12.8756 3.86538 11.3475 3.86538 9.75V9H5.36538V9.75C5.36538 10.9373 5.84894 12.0798 6.71608 12.9253C7.58386 13.7714 8.76478 14.25 10 14.25C11.2352 14.25 12.4161 13.7714 13.2839 12.9253ZM18.4995 7.51089C18.4995 7.51089 18.4951 7.507 18.4887 7.50441L19.0513 6.11392C19.2382 6.18956 19.4079 6.3006 19.5505 6.44063C19.6935 6.57946 19.8069 6.74458 19.8841 6.92642C19.9612 7.10826 20.0006 7.30321 20 7.5V17.6836C19.9995 18.1236 19.9076 18.559 19.7298 18.9634C19.552 19.3679 19.2919 19.733 18.9654 20.0367C18.3165 20.6545 17.4454 21.0003 16.5385 21H3.46154C1.58654 21 0 19.4531 0 17.625V7.5C0 7.10218 0.162087 6.72064 0.450605 6.43934C0.739122 6.15804 1.13044 6 1.53846 6H4.61538V5.25C4.61538 3.85761 5.18269 2.52226 6.1925 1.53769C7.20231 0.553123 8.57191 0 10 0C11.4281 0 12.7977 0.553123 13.8075 1.53769C14.8173 2.52226 15.3846 3.85761 15.3846 5.25V6H18.4615C18.6639 5.99957 18.8644 6.03829 19.0513 6.11392L18.4887 7.50441C18.4822 7.50178 18.4739 7.49998 18.4647 7.5L18.4615 7.5L13.8846 7.5V5.25C13.8846 4.26787 13.4848 3.31805 12.7603 2.61169C12.0346 1.90408 11.0423 1.5 10 1.5C8.95765 1.5 7.96541 1.90407 7.23965 2.61169C6.51518 3.31805 6.11538 4.26787 6.11538 5.25V7.5H1.53846C1.5191 7.5 1.50603 7.50678 1.5 7.51142V17.625C1.5 18.5891 2.37894 19.5 3.46154 19.5H16.5385C17.0654 19.5002 17.565 19.2989 17.931 18.9504L17.9374 18.9443L17.9438 18.9384C18.1221 18.7725 18.2619 18.5752 18.3566 18.3597C18.4514 18.1443 18.4997 17.9138 18.5 17.682L18.4995 7.51089Z" fill="white"/>
<path fill-rule="evenodd" clip-rule="evenodd" d="M15 7.4982H5V5.9982H15V7.4982Z" fill="white"/>
</svg>
