<svg width="29" height="29" viewBox="0 0 29 29" fill="none" xmlns="http://www.w3.org/2000/svg">
<path d="M9.30019 25.2C10.4873 25.2 11.4496 24.2376 11.4496 23.0506C11.4496 21.8635 10.4873 20.9012 9.30019 20.9012C8.11312 20.9012 7.15082 21.8635 7.15082 23.0506C7.15082 24.2376 8.11312 25.2 9.30019 25.2Z" fill="white"/>
<path d="M25.776 25.2C26.963 25.2 27.9253 24.2376 27.9253 23.0506C27.9253 21.8635 26.963 20.9012 25.776 20.9012C24.5889 20.9012 23.6266 21.8635 23.6266 23.0506C23.6266 24.2376 24.5889 25.2 25.776 25.2Z" fill="white"/>
<path d="M29 7.98131C29 7.94731 28.9835 7.91846 28.9815 7.88445C28.9732 7.8113 28.9598 7.74329 28.9392 7.67529C28.9176 7.60934 28.8949 7.54649 28.865 7.48673C28.8331 7.42593 28.796 7.37442 28.7527 7.32084C28.7094 7.2652 28.6641 7.21574 28.6095 7.1704C28.559 7.12713 28.5054 7.09415 28.4477 7.06118C28.3828 7.02512 28.3189 6.99524 28.2468 6.97154C28.2159 6.96123 28.1912 6.9396 28.1592 6.93238C28.118 6.92311 28.0809 6.93341 28.0407 6.93032C28.0005 6.92723 27.9665 6.90765 27.9263 6.90765L7.1498 6.90456C7.13434 6.90456 7.12197 6.91281 7.10652 6.91384L6.40174 4.56664C6.26573 4.11224 5.84637 3.80003 5.37239 3.80003H1.07468C0.481187 3.80003 0 4.28122 0 4.87472C0 5.46822 0.481187 5.9494 1.07468 5.9494H4.57385L8.64281 19.5112C8.77882 19.9656 9.19819 20.2758 9.67216 20.2758H25.4308C25.9357 20.2758 26.3705 19.9275 26.4807 19.435L28.9742 8.21624C28.9835 8.17708 28.9722 8.13896 28.9763 8.0998C28.9815 8.05859 29 8.02252 29 7.98131ZM24.5704 18.1264H10.4717L7.74948 9.0529L26.5858 9.05599L24.5704 18.1264Z" fill="white"/>
</svg>
